<svg width="2136" height="1258" xmlns="http://www.w3.org/2000/svg" xmlns:xlink="http://www.w3.org/1999/xlink" overflow="hidden"><defs><clipPath id="clip0"><rect x="485" y="1570" width="2136" height="1258"/></clipPath><clipPath id="clip1"><rect x="486" y="1570" width="2133" height="1255"/></clipPath><clipPath id="clip2"><rect x="871" y="1740" width="1701" height="642"/></clipPath><clipPath id="clip3"><rect x="871" y="1740" width="1701" height="642"/></clipPath><clipPath id="clip4"><rect x="871" y="1740" width="1701" height="642"/></clipPath><clipPath id="clip5"><rect x="871" y="1740" width="1701" height="642"/></clipPath><clipPath id="clip6"><rect x="486" y="1570" width="2133" height="1255"/></clipPath><clipPath id="clip7"><rect x="486" y="1570" width="2133" height="1255"/></clipPath><clipPath id="clip8"><rect x="486" y="1570" width="2133" height="1255"/></clipPath><clipPath id="clip9"><rect x="486" y="1570" width="2133" height="1255"/></clipPath><clipPath id="clip10"><rect x="486" y="1570" width="2133" height="1255"/></clipPath><clipPath id="clip11"><rect x="486" y="1570" width="2133" height="1255"/></clipPath><clipPath id="clip12"><rect x="486" y="1570" width="2133" height="1255"/></clipPath><clipPath id="clip13"><rect x="486" y="1570" width="2133" height="1255"/></clipPath><clipPath id="clip14"><rect x="486" y="1570" width="2133" height="1255"/></clipPath><clipPath id="clip15"><rect x="486" y="1570" width="2133" height="1255"/></clipPath><clipPath id="clip16"><rect x="486" y="1570" width="2133" height="1255"/></clipPath><clipPath id="clip17"><rect x="486" y="1570" width="2133" height="1255"/></clipPath><clipPath id="clip18"><rect x="486" y="1570" width="2133" height="1255"/></clipPath><clipPath id="clip19"><rect x="486" y="1570" width="2133" height="1255"/></clipPath><clipPath id="clip20"><rect x="486" y="1570" width="2133" height="1255"/></clipPath><clipPath id="clip21"><rect x="486" y="1570" width="2133" height="1255"/></clipPath><clipPath id="clip22"><rect x="486" y="1570" width="2133" height="1255"/></clipPath><clipPath id="clip23"><rect x="486" y="1570" width="2133" height="1255"/></clipPath><clipPath id="clip24"><rect x="486" y="1570" width="2133" height="1255"/></clipPath><clipPath id="clip25"><rect x="486" y="1570" width="2133" height="1255"/></clipPath><clipPath id="clip26"><rect x="486" y="1570" width="2133" height="1255"/></clipPath><clipPath id="clip27"><rect x="486" y="1570" width="2133" height="1255"/></clipPath><clipPath id="clip28"><rect x="486" y="1570" width="2133" height="1255"/></clipPath><clipPath id="clip29"><rect x="486" y="1570" width="2133" height="1255"/></clipPath><clipPath id="clip30"><rect x="486" y="1570" width="2133" height="1255"/></clipPath><clipPath id="clip31"><rect x="486" y="1570" width="2133" height="1255"/></clipPath><clipPath id="clip32"><rect x="486" y="1570" width="2133" height="1255"/></clipPath><clipPath id="clip33"><rect x="486" y="1570" width="2133" height="1255"/></clipPath><clipPath id="clip34"><rect x="486" y="1570" width="2133" height="1255"/></clipPath><clipPath id="clip35"><rect x="486" y="1570" width="2133" height="1255"/></clipPath><clipPath id="clip36"><rect x="486" y="1570" width="2133" height="1255"/></clipPath><clipPath id="clip37"><rect x="486" y="1570" width="2133" height="1255"/></clipPath><clipPath id="clip38"><rect x="486" y="1570" width="2133" height="1255"/></clipPath><clipPath id="clip39"><rect x="486" y="1570" width="2133" height="1255"/></clipPath><clipPath id="clip40"><rect x="486" y="1570" width="2133" height="1255"/></clipPath><clipPath id="clip41"><rect x="486" y="1570" width="2133" height="1255"/></clipPath><clipPath id="clip42"><rect x="486" y="1570" width="2133" height="1255"/></clipPath><clipPath id="clip43"><rect x="486" y="1570" width="2133" height="1255"/></clipPath><clipPath id="clip44"><rect x="486" y="1570" width="2133" height="1255"/></clipPath><clipPath id="clip45"><rect x="486" y="1570" width="2133" height="1255"/></clipPath><clipPath id="clip46"><rect x="486" y="1570" width="2133" height="1255"/></clipPath><clipPath id="clip47"><rect x="486" y="1570" width="2133" height="1255"/></clipPath><clipPath id="clip48"><rect x="486" y="1570" width="2133" height="1255"/></clipPath><clipPath id="clip49"><rect x="486" y="1570" width="2133" height="1255"/></clipPath><clipPath id="clip50"><rect x="486" y="1570" width="2133" height="1255"/></clipPath><clipPath id="clip51"><rect x="486" y="1570" width="2133" height="1255"/></clipPath></defs><g clip-path="url(#clip0)" transform="translate(-485 -1570)"><rect x="486" y="1571" width="2133" height="1255" fill="#FFFFFF"/><g clip-path="url(#clip1)"><path d="M871.5 2287.58 2568.5 2287.58M871.5 2196.57 2568.5 2196.57M871.5 2105.57 2568.5 2105.57M871.5 2014.57 2568.5 2014.57M871.5 1923.56 2568.5 1923.56M871.5 1831.56 2568.5 1831.56M871.5 1740.5 2568.5 1740.5" stroke="#D9D9D9" stroke-width="3.4375" stroke-linejoin="round" stroke-miterlimit="10" fill="none"/></g><g clip-path="url(#clip2)"><path d="M999.033 2197.07 1169.04 2197.07 1169.04 2379 999.033 2379ZM1423.05 2197.07 1593.05 2197.07 1593.05 2379 1423.05 2379ZM1848.06 2197.07 2017.07 2197.07 2017.07 2379 1848.06 2379ZM2272.07 2197.07 2442.08 2197.07 2442.08 2379 2272.07 2379Z" fill="#4472C4"/></g><g clip-path="url(#clip3)"><path d="M999.033 2033.07 1169.04 2033.07 1169.04 2197.07 999.033 2197.07ZM1423.05 2033.07 1593.05 2033.07 1593.05 2197.07 1423.05 2197.07ZM1848.06 2033.07 2017.07 2033.07 2017.07 2197.07 1848.06 2197.07ZM2272.07 2033.07 2442.08 2033.07 2442.08 2197.07 2272.07 2197.07Z" fill="#ED7D31"/></g><g clip-path="url(#clip4)"><path d="M999.033 1964.06 1169.04 1964.06 1169.04 2033.07 999.033 2033.07ZM1423.05 1964.06 1593.05 1964.06 1593.05 2033.07 1423.05 2033.07ZM1848.06 1964.06 2017.07 1964.06 2017.07 2033.07 1848.06 2033.07ZM2272.07 1964.06 2442.08 1964.06 2442.08 2033.07 2272.07 2033.07Z" fill="#A5A5A5"/></g><g clip-path="url(#clip5)"><path d="M999.033 1830.06 1169.04 1830.06 1169.04 1964.06 999.033 1964.06ZM1423.05 1830.06 1593.05 1830.06 1593.05 1964.06 1423.05 1964.06ZM1848.06 1830.06 2017.07 1830.06 2017.07 1964.06 1848.06 1964.06ZM2272.07 1830.06 2442.08 1830.06 2442.08 1964.06 2272.07 1964.06Z" fill="#FFC000"/></g><g clip-path="url(#clip6)"><path d="M871.5 2378.5 2568.5 2378.5" stroke="#D9D9D9" stroke-width="3.4375" stroke-linejoin="round" stroke-miterlimit="10" fill="none" fill-rule="evenodd"/></g><g clip-path="url(#clip7)"><path d="M871.5 2378.5 2568.5 2378.5" stroke="#D9D9D9" stroke-width="3.4375" stroke-linejoin="round" stroke-miterlimit="10" fill="none" fill-rule="evenodd"/></g><g clip-path="url(#clip8)"><path d="M871.5 2378.5 871.5 2442.5M1295.54 2378.5 1295.54 2442.5M1720.56 2378.5 1720.56 2442.5M2144.57 2378.5 2144.57 2442.5M2568.5 2378.5 2568.5 2442.5" stroke="#D9D9D9" stroke-width="3.4375" stroke-linejoin="round" stroke-miterlimit="10" fill="none"/></g><g clip-path="url(#clip9)"><text fill="#595959" font-family="Calibri,Calibri_MSFontService,sans-serif" font-weight="400" font-size="41" transform="matrix(1 0 0 1 1049.89 2422)">G35</text></g><g clip-path="url(#clip10)"><text fill="#595959" font-family="Calibri,Calibri_MSFontService,sans-serif" font-weight="400" font-size="41" transform="matrix(1 0 0 1 1474.22 2422)">G36</text></g><g clip-path="url(#clip11)"><text fill="#595959" font-family="Calibri,Calibri_MSFontService,sans-serif" font-weight="400" font-size="41" transform="matrix(1 0 0 1 1898.55 2422)">G37</text></g><g clip-path="url(#clip12)"><text fill="#595959" font-family="Calibri,Calibri_MSFontService,sans-serif" font-weight="400" font-size="41" transform="matrix(1 0 0 1 2322.88 2422)">G38</text></g><g clip-path="url(#clip13)"><path d="M564.5 2442.5 2568.5 2442.5M564.5 2442.5 564.5 2508.5M871.529 2442.5 871.529 2508.5M871.529 2442.5 871.529 2508.5M1295.54 2442.5 1295.54 2508.5M1295.54 2442.5 1295.54 2508.5M1720.56 2442.5 1720.56 2508.5M1720.56 2442.5 1720.56 2508.5M2144.57 2442.5 2144.57 2508.5M2144.57 2442.5 2144.57 2508.5M2568.5 2442.5 2568.5 2508.5M2568.5 2442.5 2568.5 2508.5" stroke="#D9D9D9" stroke-width="3.4375" stroke-linejoin="round" stroke-miterlimit="10" fill="none"/></g><g clip-path="url(#clip14)"><rect x="579" y="2463" width="23.0001" height="22" fill="#FFC000"/></g><g clip-path="url(#clip15)"><text fill="#595959" font-family="Calibri,Calibri_MSFontService,sans-serif" font-weight="400" font-size="41" transform="matrix(1 0 0 1 611.354 2486)"> pseudo</text></g><g clip-path="url(#clip16)"><text fill="#595959" font-family="Calibri,Calibri_MSFontService,sans-serif" font-weight="400" font-size="41" transform="matrix(1 0 0 1 1031.56 2487)">14767</text></g><g clip-path="url(#clip17)"><text fill="#595959" font-family="Calibri,Calibri_MSFontService,sans-serif" font-weight="400" font-size="41" transform="matrix(1 0 0 1 1455.89 2487)">14761</text></g><g clip-path="url(#clip18)"><text fill="#595959" font-family="Calibri,Calibri_MSFontService,sans-serif" font-weight="400" font-size="41" transform="matrix(1 0 0 1 1880.21 2487)">14773</text></g><g clip-path="url(#clip19)"><text fill="#595959" font-family="Calibri,Calibri_MSFontService,sans-serif" font-weight="400" font-size="41" transform="matrix(1 0 0 1 2304.54 2487)">14773</text></g><g clip-path="url(#clip20)"><path d="M564.5 2508.5 2568.5 2508.5M564.5 2508.5 564.5 2573.5M871.529 2508.5 871.529 2573.5M871.529 2508.5 871.529 2573.5M1295.54 2508.5 1295.54 2573.5M1295.54 2508.5 1295.54 2573.5M1720.56 2508.5 1720.56 2573.5M1720.56 2508.5 1720.56 2573.5M2144.57 2508.5 2144.57 2573.5M2144.57 2508.5 2144.57 2573.5M2568.5 2508.5 2568.5 2573.5M2568.5 2508.5 2568.5 2573.5" stroke="#D9D9D9" stroke-width="3.4375" stroke-linejoin="round" stroke-miterlimit="10" fill="none"/></g><g clip-path="url(#clip21)"><rect x="579" y="2529" width="23.0001" height="22" fill="#A5A5A5"/></g><g clip-path="url(#clip22)"><text fill="#595959" font-family="Calibri,Calibri_MSFontService,sans-serif" font-weight="400" font-size="41" transform="matrix(1 0 0 1 611.354 2551)">snRNA</text></g><g clip-path="url(#clip23)"><text fill="#595959" font-family="Calibri,Calibri_MSFontService,sans-serif" font-weight="400" font-size="41" transform="matrix(1 0 0 1 1042.01 2553)">7569</text></g><g clip-path="url(#clip24)"><text fill="#595959" font-family="Calibri,Calibri_MSFontService,sans-serif" font-weight="400" font-size="41" transform="matrix(1 0 0 1 1466.34 2553)">7569</text></g><g clip-path="url(#clip25)"><text fill="#595959" font-family="Calibri,Calibri_MSFontService,sans-serif" font-weight="400" font-size="41" transform="matrix(1 0 0 1 1890.66 2553)">7569</text></g><g clip-path="url(#clip26)"><text fill="#595959" font-family="Calibri,Calibri_MSFontService,sans-serif" font-weight="400" font-size="41" transform="matrix(1 0 0 1 2314.99 2553)">7567</text></g><g clip-path="url(#clip27)"><path d="M564.5 2573.5 2568.5 2573.5M564.5 2573.5 564.5 2639.5M871.529 2573.5 871.529 2639.5M871.529 2573.5 871.529 2639.5M1295.54 2573.5 1295.54 2639.5M1295.54 2573.5 1295.54 2639.5M1720.56 2573.5 1720.56 2639.5M1720.56 2573.5 1720.56 2639.5M2144.57 2573.5 2144.57 2639.5M2144.57 2573.5 2144.57 2639.5M2568.5 2573.5 2568.5 2639.5M2568.5 2573.5 2568.5 2639.5" stroke="#D9D9D9" stroke-width="3.4375" stroke-linejoin="round" stroke-miterlimit="10" fill="none"/></g><g clip-path="url(#clip28)"><rect x="579" y="2594" width="23.0001" height="23" fill="#ED7D31"/></g><g clip-path="url(#clip29)"><text fill="#595959" font-family="Calibri,Calibri_MSFontService,sans-serif" font-weight="400" font-size="41" transform="matrix(1 0 0 1 611.354 2617)">lncRNA</text></g><g clip-path="url(#clip30)"><text fill="#595959" font-family="Calibri,Calibri_MSFontService,sans-serif" font-weight="400" font-size="41" transform="matrix(1 0 0 1 1031.56 2618)">17957</text></g><g clip-path="url(#clip31)"><text fill="#595959" font-family="Calibri,Calibri_MSFontService,sans-serif" font-weight="400" font-size="41" transform="matrix(1 0 0 1 1455.89 2618)">17958</text></g><g clip-path="url(#clip32)"><text fill="#595959" font-family="Calibri,Calibri_MSFontService,sans-serif" font-weight="400" font-size="41" transform="matrix(1 0 0 1 1880.21 2618)">17948</text></g><g clip-path="url(#clip33)"><text fill="#595959" font-family="Calibri,Calibri_MSFontService,sans-serif" font-weight="400" font-size="41" transform="matrix(1 0 0 1 2304.54 2618)">17944</text></g><g clip-path="url(#clip34)"><path d="M564.5 2639.5 2568.5 2639.5M564.5 2639.5 564.5 2705.5M564.5 2705.5 2568.5 2705.5M871.529 2639.5 871.529 2705.5M871.529 2639.5 871.529 2705.5M1295.54 2639.5 1295.54 2705.5M1295.54 2639.5 1295.54 2705.5M1720.56 2639.5 1720.56 2705.5M1720.56 2639.5 1720.56 2705.5M2144.57 2639.5 2144.57 2705.5M2144.57 2639.5 2144.57 2705.5M2568.5 2639.5 2568.5 2705.5M2568.5 2639.5 2568.5 2705.5" stroke="#D9D9D9" stroke-width="3.4375" stroke-linejoin="round" stroke-miterlimit="10" fill="none"/></g><g clip-path="url(#clip35)"><rect x="579" y="2660" width="23.0001" height="23" fill="#4472C4"/></g><g clip-path="url(#clip36)"><text fill="#595959" font-family="Calibri,Calibri_MSFontService,sans-serif" font-weight="400" font-size="41" transform="matrix(1 0 0 1 611.354 2683)">Protein Coding</text></g><g clip-path="url(#clip37)"><text fill="#595959" font-family="Calibri,Calibri_MSFontService,sans-serif" font-weight="400" font-size="41" transform="matrix(1 0 0 1 1031.56 2684)">19954</text></g><g clip-path="url(#clip38)"><text fill="#595959" font-family="Calibri,Calibri_MSFontService,sans-serif" font-weight="400" font-size="41" transform="matrix(1 0 0 1 1455.89 2684)">19962</text></g><g clip-path="url(#clip39)"><text fill="#595959" font-family="Calibri,Calibri_MSFontService,sans-serif" font-weight="400" font-size="41" transform="matrix(1 0 0 1 1880.21 2684)">19951</text></g><g clip-path="url(#clip40)"><text fill="#595959" font-family="Calibri,Calibri_MSFontService,sans-serif" font-weight="400" font-size="41" transform="matrix(1 0 0 1 2304.54 2684)">19955</text></g><g clip-path="url(#clip41)"><text fill="#595959" font-family="Calibri,Calibri_MSFontService,sans-serif" font-weight="400" font-size="41" transform="matrix(1 0 0 1 812.476 2390)">0</text></g><g clip-path="url(#clip42)"><text fill="#595959" font-family="Calibri,Calibri_MSFontService,sans-serif" font-weight="400" font-size="41" transform="matrix(1 0 0 1 728.876 2299)">10000</text></g><g clip-path="url(#clip43)"><text fill="#595959" font-family="Calibri,Calibri_MSFontService,sans-serif" font-weight="400" font-size="41" transform="matrix(1 0 0 1 728.876 2208)">20000</text></g><g clip-path="url(#clip44)"><text fill="#595959" font-family="Calibri,Calibri_MSFontService,sans-serif" font-weight="400" font-size="41" transform="matrix(1 0 0 1 728.876 2117)">30000</text></g><g clip-path="url(#clip45)"><text fill="#595959" font-family="Calibri,Calibri_MSFontService,sans-serif" font-weight="400" font-size="41" transform="matrix(1 0 0 1 728.876 2026)">40000</text></g><g clip-path="url(#clip46)"><text fill="#595959" font-family="Calibri,Calibri_MSFontService,sans-serif" font-weight="400" font-size="41" transform="matrix(1 0 0 1 728.876 1935)">50000</text></g><g clip-path="url(#clip47)"><text fill="#595959" font-family="Calibri,Calibri_MSFontService,sans-serif" font-weight="400" font-size="41" transform="matrix(1 0 0 1 728.876 1844)">60000</text></g><g clip-path="url(#clip48)"><text fill="#595959" font-family="Calibri,Calibri_MSFontService,sans-serif" font-weight="400" font-size="41" transform="matrix(1 0 0 1 728.876 1752)">70000</text></g><g clip-path="url(#clip49)"><text fill="#595959" font-family="Calibri,Calibri_MSFontService,sans-serif" font-weight="700" font-size="46" transform="matrix(6.12323e-17 -1 1 6.12323e-17 587.697 2223)">Number of genes</text></g><g clip-path="url(#clip50)"><text fill="#595959" font-family="Calibri,Calibri_MSFontService,sans-serif" font-weight="700" font-size="46" transform="matrix(1 0 0 1 1352.61 2784)">GENCODE human releases</text></g><g clip-path="url(#clip51)"><text fill="#595959" font-family="Calibri,Calibri_MSFontService,sans-serif" font-weight="400" font-size="64" transform="matrix(1 0 0 1 892.627 1666)">Annotation statistics for human GENCODE releases</text></g><rect x="486.5" y="1571.5" width="2133" height="1255" stroke="#D9D9D9" stroke-width="3.4375" stroke-linejoin="round" stroke-miterlimit="10" fill="none"/></g></svg>