<svg width="1919" height="993" xmlns="http://www.w3.org/2000/svg" xmlns:xlink="http://www.w3.org/1999/xlink" overflow="hidden"><defs><clipPath id="clip0"><rect x="2507" y="64" width="1919" height="993"/></clipPath><clipPath id="clip1"><rect x="2507" y="65" width="1917" height="990"/></clipPath><clipPath id="clip2"><rect x="3114" y="235" width="1263" height="508"/></clipPath><clipPath id="clip3"><rect x="3114" y="235" width="1263" height="508"/></clipPath><clipPath id="clip4"><rect x="2507" y="65" width="1917" height="990"/></clipPath><clipPath id="clip5"><rect x="2507" y="65" width="1917" height="990"/></clipPath><clipPath id="clip6"><rect x="2507" y="65" width="1917" height="990"/></clipPath><clipPath id="clip7"><rect x="2507" y="65" width="1917" height="990"/></clipPath><clipPath id="clip8"><rect x="2507" y="65" width="1917" height="990"/></clipPath><clipPath id="clip9"><rect x="2507" y="65" width="1917" height="990"/></clipPath><clipPath id="clip10"><rect x="2507" y="65" width="1917" height="990"/></clipPath><clipPath id="clip11"><rect x="2507" y="65" width="1917" height="990"/></clipPath><clipPath id="clip12"><rect x="2507" y="65" width="1917" height="990"/></clipPath><clipPath id="clip13"><rect x="2507" y="65" width="1917" height="990"/></clipPath><clipPath id="clip14"><rect x="2507" y="65" width="1917" height="990"/></clipPath><clipPath id="clip15"><rect x="2507" y="65" width="1917" height="990"/></clipPath><clipPath id="clip16"><rect x="2507" y="65" width="1917" height="990"/></clipPath><clipPath id="clip17"><rect x="2507" y="65" width="1917" height="990"/></clipPath><clipPath id="clip18"><rect x="2507" y="65" width="1917" height="990"/></clipPath><clipPath id="clip19"><rect x="2507" y="65" width="1917" height="990"/></clipPath><clipPath id="clip20"><rect x="2507" y="65" width="1917" height="990"/></clipPath><clipPath id="clip21"><rect x="2507" y="65" width="1917" height="990"/></clipPath><clipPath id="clip22"><rect x="2507" y="65" width="1917" height="990"/></clipPath><clipPath id="clip23"><rect x="2507" y="65" width="1917" height="990"/></clipPath><clipPath id="clip24"><rect x="2507" y="65" width="1917" height="990"/></clipPath><clipPath id="clip25"><rect x="2507" y="65" width="1917" height="990"/></clipPath><clipPath id="clip26"><rect x="2507" y="65" width="1917" height="990"/></clipPath><clipPath id="clip27"><rect x="2507" y="65" width="1917" height="990"/></clipPath><clipPath id="clip28"><rect x="2507" y="65" width="1917" height="990"/></clipPath><clipPath id="clip29"><rect x="2507" y="65" width="1917" height="990"/></clipPath><clipPath id="clip30"><rect x="2507" y="65" width="1917" height="990"/></clipPath><clipPath id="clip31"><rect x="2507" y="65" width="1917" height="990"/></clipPath><clipPath id="clip32"><rect x="2507" y="65" width="1917" height="990"/></clipPath><clipPath id="clip33"><rect x="2507" y="65" width="1917" height="990"/></clipPath><clipPath id="clip34"><rect x="2507" y="65" width="1917" height="990"/></clipPath><clipPath id="clip35"><rect x="2507" y="65" width="1917" height="990"/></clipPath><clipPath id="clip36"><rect x="2507" y="65" width="1917" height="990"/></clipPath></defs><g clip-path="url(#clip0)" transform="translate(-2507 -64)"><rect x="2508" y="65" width="1916" height="990" fill="#FFFFFF"/><g clip-path="url(#clip1)"><path d="M3114.5 677.522 4373.5 677.522M3114.5 613.52 4373.5 613.52M3114.5 550.518 4373.5 550.518M3114.5 487.516 4373.5 487.516M3114.5 424.514 4373.5 424.514M3114.5 361.512 4373.5 361.512M3114.5 298.51 4373.5 298.51M3114.5 235.5 4373.5 235.5" stroke="#D9D9D9" stroke-width="3.4375" stroke-linejoin="round" stroke-miterlimit="10" fill="none"/></g><g clip-path="url(#clip2)"><path d="M3192.1 565.019 3262.11 565.019 3262.11 740 3192.1 740ZM3507.11 565.019 3577.12 565.019 3577.12 740 3507.11 740ZM3821.13 571.019 3892.13 571.019 3892.13 740 3821.13 740ZM4136.14 565.019 4207.14 565.019 4207.14 740 4136.14 740Z" fill="#4472C4"/></g><g clip-path="url(#clip3)"><path d="M3281.11 290.01 3352.11 290.01 3352.11 740 3281.11 740ZM3596.12 290.01 3667.12 290.01 3667.12 740 3596.12 740ZM3911.13 296.01 3982.13 296.01 3982.13 740 3911.13 740ZM4226.14 291.01 4296.14 291.01 4296.14 740 4226.14 740Z" fill="#ED7D31"/></g><g clip-path="url(#clip4)"><path d="M3114.5 740.5 4373.5 740.5" stroke="#D9D9D9" stroke-width="3.4375" stroke-linejoin="round" stroke-miterlimit="10" fill="none" fill-rule="evenodd"/></g><g clip-path="url(#clip5)"><path d="M3114.5 740.5 4373.5 740.5" stroke="#D9D9D9" stroke-width="3.4375" stroke-linejoin="round" stroke-miterlimit="10" fill="none" fill-rule="evenodd"/></g><g clip-path="url(#clip6)"><path d="M3114.5 740.5 3114.5 803.5M3429.61 740.5 3429.61 803.5M3744.62 740.5 3744.62 803.5M4058.63 740.5 4058.63 803.5M4373.5 740.5 4373.5 803.5" stroke="#D9D9D9" stroke-width="3.4375" stroke-linejoin="round" stroke-miterlimit="10" fill="none"/></g><g clip-path="url(#clip7)"><text fill="#595959" font-family="Calibri,Calibri_MSFontService,sans-serif" font-weight="400" font-size="41" transform="matrix(1 0 0 1 3233.52 783)">M24</text></g><g clip-path="url(#clip8)"><text fill="#595959" font-family="Calibri,Calibri_MSFontService,sans-serif" font-weight="400" font-size="41" transform="matrix(1 0 0 1 3548.26 783)">M25</text></g><g clip-path="url(#clip9)"><text fill="#595959" font-family="Calibri,Calibri_MSFontService,sans-serif" font-weight="400" font-size="41" transform="matrix(1 0 0 1 3863 783)">M26</text></g><g clip-path="url(#clip10)"><text fill="#595959" font-family="Calibri,Calibri_MSFontService,sans-serif" font-weight="400" font-size="41" transform="matrix(1 0 0 1 4177.74 783)">M27</text></g><g clip-path="url(#clip11)"><path d="M2585.5 803.5 4373.5 803.5M2585.5 803.5 2585.5 869.5M3114.6 803.5 3114.6 869.5M3114.6 803.5 3114.6 869.5M3429.61 803.5 3429.61 869.5M3429.61 803.5 3429.61 869.5M3744.62 803.5 3744.62 869.5M3744.62 803.5 3744.62 869.5M4058.63 803.5 4058.63 869.5M4058.63 803.5 4058.63 869.5M4373.5 803.5 4373.5 869.5M4373.5 803.5 4373.5 869.5" stroke="#D9D9D9" stroke-width="3.4375" stroke-linejoin="round" stroke-miterlimit="10" fill="none"/></g><g clip-path="url(#clip12)"><rect x="2600" y="824" width="23" height="23.0001" fill="#4472C4"/></g><g clip-path="url(#clip13)"><text fill="#595959" font-family="Calibri,Calibri_MSFontService,sans-serif" font-weight="400" font-size="41" transform="matrix(1 0 0 1 2632.6 847)">Total Number of Genes</text></g><g clip-path="url(#clip14)"><text fill="#595959" font-family="Calibri,Calibri_MSFontService,sans-serif" font-weight="400" font-size="41" transform="matrix(1 0 0 1 3219.8 848)">55385</text></g><g clip-path="url(#clip15)"><text fill="#595959" font-family="Calibri,Calibri_MSFontService,sans-serif" font-weight="400" font-size="41" transform="matrix(1 0 0 1 3534.54 848)">55401</text></g><g clip-path="url(#clip16)"><text fill="#595959" font-family="Calibri,Calibri_MSFontService,sans-serif" font-weight="400" font-size="41" transform="matrix(1 0 0 1 3849.28 848)">53647</text></g><g clip-path="url(#clip17)"><text fill="#595959" font-family="Calibri,Calibri_MSFontService,sans-serif" font-weight="400" font-size="41" transform="matrix(1 0 0 1 4164.03 848)">55359</text></g><g clip-path="url(#clip18)"><path d="M2585.5 869.5 4373.5 869.5M2585.5 869.5 2585.5 935.5M2585.5 935.5 4373.5 935.5M3114.6 869.5 3114.6 935.5M3114.6 869.5 3114.6 935.5M3429.61 869.5 3429.61 935.5M3429.61 869.5 3429.61 935.5M3744.62 869.5 3744.62 935.5M3744.62 869.5 3744.62 935.5M4058.63 869.5 4058.63 935.5M4058.63 869.5 4058.63 935.5M4373.5 869.5 4373.5 935.5M4373.5 869.5 4373.5 935.5" stroke="#D9D9D9" stroke-width="3.4375" stroke-linejoin="round" stroke-miterlimit="10" fill="none"/></g><g clip-path="url(#clip19)"><rect x="2600" y="890" width="23" height="23.0001" fill="#ED7D31"/></g><g clip-path="url(#clip20)"><text fill="#595959" font-family="Calibri,Calibri_MSFontService,sans-serif" font-weight="400" font-size="41" transform="matrix(1 0 0 1 2632.6 913)">Total Number of Transcripts</text></g><g clip-path="url(#clip21)"><text fill="#595959" font-family="Calibri,Calibri_MSFontService,sans-serif" font-weight="400" font-size="41" transform="matrix(1 0 0 1 3209.35 914)">142552</text></g><g clip-path="url(#clip22)"><text fill="#595959" font-family="Calibri,Calibri_MSFontService,sans-serif" font-weight="400" font-size="41" transform="matrix(1 0 0 1 3524.09 914)">142604</text></g><g clip-path="url(#clip23)"><text fill="#595959" font-family="Calibri,Calibri_MSFontService,sans-serif" font-weight="400" font-size="41" transform="matrix(1 0 0 1 3838.83 914)">140670</text></g><g clip-path="url(#clip24)"><text fill="#595959" font-family="Calibri,Calibri_MSFontService,sans-serif" font-weight="400" font-size="41" transform="matrix(1 0 0 1 4153.58 914)">142375</text></g><g clip-path="url(#clip25)"><text fill="#595959" font-family="Calibri,Calibri_MSFontService,sans-serif" font-weight="400" font-size="41" transform="matrix(1 0 0 1 3055.52 752)">0</text></g><g clip-path="url(#clip26)"><text fill="#595959" font-family="Calibri,Calibri_MSFontService,sans-serif" font-weight="400" font-size="41" transform="matrix(1 0 0 1 2971.92 689)">20000</text></g><g clip-path="url(#clip27)"><text fill="#595959" font-family="Calibri,Calibri_MSFontService,sans-serif" font-weight="400" font-size="41" transform="matrix(1 0 0 1 2971.92 625)">40000</text></g><g clip-path="url(#clip28)"><text fill="#595959" font-family="Calibri,Calibri_MSFontService,sans-serif" font-weight="400" font-size="41" transform="matrix(1 0 0 1 2971.92 562)">60000</text></g><g clip-path="url(#clip29)"><text fill="#595959" font-family="Calibri,Calibri_MSFontService,sans-serif" font-weight="400" font-size="41" transform="matrix(1 0 0 1 2971.92 499)">80000</text></g><g clip-path="url(#clip30)"><text fill="#595959" font-family="Calibri,Calibri_MSFontService,sans-serif" font-weight="400" font-size="41" transform="matrix(1 0 0 1 2951.02 436)">100000</text></g><g clip-path="url(#clip31)"><text fill="#595959" font-family="Calibri,Calibri_MSFontService,sans-serif" font-weight="400" font-size="41" transform="matrix(1 0 0 1 2951.02 373)">120000</text></g><g clip-path="url(#clip32)"><text fill="#595959" font-family="Calibri,Calibri_MSFontService,sans-serif" font-weight="400" font-size="41" transform="matrix(1 0 0 1 2951.02 310)">140000</text></g><g clip-path="url(#clip33)"><text fill="#595959" font-family="Calibri,Calibri_MSFontService,sans-serif" font-weight="400" font-size="41" transform="matrix(1 0 0 1 2951.02 247)">160000</text></g><g clip-path="url(#clip34)"><text fill="#595959" font-family="Calibri,Calibri_MSFontService,sans-serif" font-weight="700" font-size="46" transform="matrix(6.12323e-17 -1 1 6.12323e-17 2608.95 675)">Number of features</text></g><g clip-path="url(#clip35)"><text fill="#595959" font-family="Calibri,Calibri_MSFontService,sans-serif" font-weight="700" font-size="46" transform="matrix(1 0 0 1 3383.16 1014)">GENCODE mouse releases</text></g><g clip-path="url(#clip36)"><text fill="#595959" font-family="Calibri,Calibri_MSFontService,sans-serif" font-weight="400" font-size="64" transform="matrix(1 0 0 1 2770.99 161)">Total numbers of genes and transcripts of all biotypes</text></g><rect x="2508.5" y="65.5002" width="1916" height="990" stroke="#D9D9D9" stroke-width="3.4375" stroke-linejoin="round" stroke-miterlimit="10" fill="none"/></g></svg>