<svg width="1982" height="1192" xmlns="http://www.w3.org/2000/svg" xmlns:xlink="http://www.w3.org/1999/xlink" overflow="hidden"><defs><clipPath id="clip0"><rect x="485" y="1508" width="1982" height="1192"/></clipPath><clipPath id="clip1"><rect x="486" y="1509" width="1978" height="1189"/></clipPath><clipPath id="clip2"><rect x="871" y="1679" width="1546" height="576"/></clipPath><clipPath id="clip3"><rect x="871" y="1679" width="1546" height="576"/></clipPath><clipPath id="clip4"><rect x="871" y="1679" width="1546" height="576"/></clipPath><clipPath id="clip5"><rect x="871" y="1679" width="1546" height="576"/></clipPath><clipPath id="clip6"><rect x="486" y="1509" width="1978" height="1189"/></clipPath><clipPath id="clip7"><rect x="486" y="1509" width="1978" height="1189"/></clipPath><clipPath id="clip8"><rect x="486" y="1509" width="1978" height="1189"/></clipPath><clipPath id="clip9"><rect x="486" y="1509" width="1978" height="1189"/></clipPath><clipPath id="clip10"><rect x="486" y="1509" width="1978" height="1189"/></clipPath><clipPath id="clip11"><rect x="486" y="1509" width="1978" height="1189"/></clipPath><clipPath id="clip12"><rect x="486" y="1509" width="1978" height="1189"/></clipPath><clipPath id="clip13"><rect x="486" y="1509" width="1978" height="1189"/></clipPath><clipPath id="clip14"><rect x="486" y="1509" width="1978" height="1189"/></clipPath><clipPath id="clip15"><rect x="486" y="1509" width="1978" height="1189"/></clipPath><clipPath id="clip16"><rect x="486" y="1509" width="1978" height="1189"/></clipPath><clipPath id="clip17"><rect x="486" y="1509" width="1978" height="1189"/></clipPath><clipPath id="clip18"><rect x="486" y="1509" width="1978" height="1189"/></clipPath><clipPath id="clip19"><rect x="486" y="1509" width="1978" height="1189"/></clipPath><clipPath id="clip20"><rect x="486" y="1509" width="1978" height="1189"/></clipPath><clipPath id="clip21"><rect x="486" y="1509" width="1978" height="1189"/></clipPath><clipPath id="clip22"><rect x="486" y="1509" width="1978" height="1189"/></clipPath><clipPath id="clip23"><rect x="486" y="1509" width="1978" height="1189"/></clipPath><clipPath id="clip24"><rect x="486" y="1509" width="1978" height="1189"/></clipPath><clipPath id="clip25"><rect x="486" y="1509" width="1978" height="1189"/></clipPath><clipPath id="clip26"><rect x="486" y="1509" width="1978" height="1189"/></clipPath><clipPath id="clip27"><rect x="486" y="1509" width="1978" height="1189"/></clipPath><clipPath id="clip28"><rect x="486" y="1509" width="1978" height="1189"/></clipPath><clipPath id="clip29"><rect x="486" y="1509" width="1978" height="1189"/></clipPath><clipPath id="clip30"><rect x="486" y="1509" width="1978" height="1189"/></clipPath><clipPath id="clip31"><rect x="486" y="1509" width="1978" height="1189"/></clipPath><clipPath id="clip32"><rect x="486" y="1509" width="1978" height="1189"/></clipPath><clipPath id="clip33"><rect x="486" y="1509" width="1978" height="1189"/></clipPath><clipPath id="clip34"><rect x="486" y="1509" width="1978" height="1189"/></clipPath><clipPath id="clip35"><rect x="486" y="1509" width="1978" height="1189"/></clipPath><clipPath id="clip36"><rect x="486" y="1509" width="1978" height="1189"/></clipPath><clipPath id="clip37"><rect x="486" y="1509" width="1978" height="1189"/></clipPath><clipPath id="clip38"><rect x="486" y="1509" width="1978" height="1189"/></clipPath><clipPath id="clip39"><rect x="486" y="1509" width="1978" height="1189"/></clipPath><clipPath id="clip40"><rect x="486" y="1509" width="1978" height="1189"/></clipPath><clipPath id="clip41"><rect x="486" y="1509" width="1978" height="1189"/></clipPath><clipPath id="clip42"><rect x="486" y="1509" width="1978" height="1189"/></clipPath><clipPath id="clip43"><rect x="486" y="1509" width="1978" height="1189"/></clipPath><clipPath id="clip44"><rect x="486" y="1509" width="1978" height="1189"/></clipPath><clipPath id="clip45"><rect x="486" y="1509" width="1978" height="1189"/></clipPath><clipPath id="clip46"><rect x="486" y="1509" width="1978" height="1189"/></clipPath><clipPath id="clip47"><rect x="486" y="1509" width="1978" height="1189"/></clipPath><clipPath id="clip48"><rect x="486" y="1509" width="1978" height="1189"/></clipPath><clipPath id="clip49"><rect x="486" y="1509" width="1978" height="1189"/></clipPath><clipPath id="clip50"><rect x="486" y="1509" width="1978" height="1189"/></clipPath></defs><g clip-path="url(#clip0)" transform="translate(-485 -1508)"><rect x="486" y="1509" width="1979" height="1189" fill="#FFFFFF"/><g clip-path="url(#clip1)"><path d="M871.5 2156.57 2414.5 2156.57M871.5 2060.57 2414.5 2060.57M871.5 1965.56 2414.5 1965.56M871.5 1869.56 2414.5 1869.56M871.5 1774.56 2414.5 1774.56M871.5 1679.5 2414.5 1679.5" stroke="#D9D9D9" stroke-width="3.4375" stroke-linejoin="round" stroke-miterlimit="10" fill="none"/></g><g clip-path="url(#clip2)"><path d="M987.032 2043.07 1142.04 2043.07 1142.04 2252 987.032 2252ZM1373.05 2043.07 1527.05 2043.07 1527.05 2252 1373.05 2252ZM1759.06 2043.07 1913.06 2043.07 1913.06 2252 1759.06 2252ZM2144.07 2043.07 2298.08 2043.07 2298.08 2252 2144.07 2252Z" fill="#4472C4"/></g><g clip-path="url(#clip3)"><path d="M987.032 1917.06 1142.04 1917.06 1142.04 2043.07 987.032 2043.07ZM1373.05 1919.06 1527.05 1919.06 1527.05 2043.07 1373.05 2043.07ZM1759.06 1917.06 1913.06 1917.06 1913.06 2043.07 1759.06 2043.07ZM2144.07 1917.06 2298.08 1917.06 2298.08 2043.07 2144.07 2043.07Z" fill="#ED7D31"/></g><g clip-path="url(#clip4)"><path d="M987.032 1859.06 1142.04 1859.06 1142.04 1917.06 987.032 1917.06ZM1373.05 1861.06 1527.05 1861.06 1527.05 1919.06 1373.05 1919.06ZM1759.06 1875.06 1913.06 1875.06 1913.06 1917.06 1759.06 1917.06ZM2144.07 1859.06 2298.08 1859.06 2298.08 1917.06 2144.07 1917.06Z" fill="#A5A5A5"/></g><g clip-path="url(#clip5)"><path d="M987.032 1728.06 1142.04 1728.06 1142.04 1859.06 987.032 1859.06ZM1373.05 1730.06 1527.05 1730.06 1527.05 1861.06 1373.05 1861.06ZM1759.06 1745.06 1913.06 1745.06 1913.06 1875.06 1759.06 1875.06ZM2144.07 1728.06 2298.08 1728.06 2298.08 1859.06 2144.07 1859.06Z" fill="#FFC000"/></g><g clip-path="url(#clip6)"><path d="M871.5 2251.5 2414.5 2251.5" stroke="#D9D9D9" stroke-width="3.4375" stroke-linejoin="round" stroke-miterlimit="10" fill="none" fill-rule="evenodd"/></g><g clip-path="url(#clip7)"><path d="M871.5 2251.5 2414.5 2251.5" stroke="#D9D9D9" stroke-width="3.4375" stroke-linejoin="round" stroke-miterlimit="10" fill="none" fill-rule="evenodd"/></g><g clip-path="url(#clip8)"><path d="M871.5 2251.5 871.5 2315.5M1257.54 2251.5 1257.54 2315.5M1642.55 2251.5 1642.55 2315.5M2028.57 2251.5 2028.57 2315.5M2414.5 2251.5 2414.5 2315.5" stroke="#D9D9D9" stroke-width="3.4375" stroke-linejoin="round" stroke-miterlimit="10" fill="none"/></g><g clip-path="url(#clip9)"><text fill="#595959" font-family="Calibri,Calibri_MSFontService,sans-serif" font-weight="400" font-size="41" transform="matrix(1 0 0 1 1025.94 2295)">M24</text></g><g clip-path="url(#clip10)"><text fill="#595959" font-family="Calibri,Calibri_MSFontService,sans-serif" font-weight="400" font-size="41" transform="matrix(1 0 0 1 1411.59 2295)">M25</text></g><g clip-path="url(#clip11)"><text fill="#595959" font-family="Calibri,Calibri_MSFontService,sans-serif" font-weight="400" font-size="41" transform="matrix(1 0 0 1 1797.25 2295)">M26</text></g><g clip-path="url(#clip12)"><text fill="#595959" font-family="Calibri,Calibri_MSFontService,sans-serif" font-weight="400" font-size="41" transform="matrix(1 0 0 1 2182.91 2295)">M27</text></g><g clip-path="url(#clip13)"><path d="M564.5 2315.5 2414.5 2315.5M564.5 2315.5 564.5 2380.5M871.529 2315.5 871.529 2380.5M871.529 2315.5 871.529 2380.5M1257.54 2315.5 1257.54 2380.5M1257.54 2315.5 1257.54 2380.5M1642.55 2315.5 1642.55 2380.5M1642.55 2315.5 1642.55 2380.5M2028.57 2315.5 2028.57 2380.5M2028.57 2315.5 2028.57 2380.5M2414.5 2315.5 2414.5 2380.5M2414.5 2315.5 2414.5 2380.5" stroke="#D9D9D9" stroke-width="3.4375" stroke-linejoin="round" stroke-miterlimit="10" fill="none"/></g><g clip-path="url(#clip14)"><rect x="579" y="2336" width="23.0001" height="22" fill="#FFC000"/></g><g clip-path="url(#clip15)"><text fill="#595959" font-family="Calibri,Calibri_MSFontService,sans-serif" font-weight="400" font-size="41" transform="matrix(1 0 0 1 611.354 2358)"> pseudo</text></g><g clip-path="url(#clip16)"><text fill="#595959" font-family="Calibri,Calibri_MSFontService,sans-serif" font-weight="400" font-size="41" transform="matrix(1 0 0 1 1012.22 2360)">13730</text></g><g clip-path="url(#clip17)"><text fill="#595959" font-family="Calibri,Calibri_MSFontService,sans-serif" font-weight="400" font-size="41" transform="matrix(1 0 0 1 1397.88 2360)">13743</text></g><g clip-path="url(#clip18)"><text fill="#595959" font-family="Calibri,Calibri_MSFontService,sans-serif" font-weight="400" font-size="41" transform="matrix(1 0 0 1 1783.54 2360)">13725</text></g><g clip-path="url(#clip19)"><text fill="#595959" font-family="Calibri,Calibri_MSFontService,sans-serif" font-weight="400" font-size="41" transform="matrix(1 0 0 1 2169.19 2360)">13738</text></g><g clip-path="url(#clip20)"><path d="M564.5 2380.5 2414.5 2380.5M564.5 2380.5 564.5 2446.5M871.529 2380.5 871.529 2446.5M871.529 2380.5 871.529 2446.5M1257.54 2380.5 1257.54 2446.5M1257.54 2380.5 1257.54 2446.5M1642.55 2380.5 1642.55 2446.5M1642.55 2380.5 1642.55 2446.5M2028.57 2380.5 2028.57 2446.5M2028.57 2380.5 2028.57 2446.5M2414.5 2380.5 2414.5 2446.5M2414.5 2380.5 2414.5 2446.5" stroke="#D9D9D9" stroke-width="3.4375" stroke-linejoin="round" stroke-miterlimit="10" fill="none"/></g><g clip-path="url(#clip21)"><rect x="579" y="2401" width="23.0001" height="23" fill="#A5A5A5"/></g><g clip-path="url(#clip22)"><text fill="#595959" font-family="Calibri,Calibri_MSFontService,sans-serif" font-weight="400" font-size="41" transform="matrix(1 0 0 1 611.354 2424)">snRNA</text></g><g clip-path="url(#clip23)"><text fill="#595959" font-family="Calibri,Calibri_MSFontService,sans-serif" font-weight="400" font-size="41" transform="matrix(1 0 0 1 1022.67 2425)">6108</text></g><g clip-path="url(#clip24)"><text fill="#595959" font-family="Calibri,Calibri_MSFontService,sans-serif" font-weight="400" font-size="41" transform="matrix(1 0 0 1 1408.33 2425)">6108</text></g><g clip-path="url(#clip25)"><text fill="#595959" font-family="Calibri,Calibri_MSFontService,sans-serif" font-weight="400" font-size="41" transform="matrix(1 0 0 1 1793.99 2425)">4376</text></g><g clip-path="url(#clip26)"><text fill="#595959" font-family="Calibri,Calibri_MSFontService,sans-serif" font-weight="400" font-size="41" transform="matrix(1 0 0 1 2179.64 2425)">6105</text></g><g clip-path="url(#clip27)"><path d="M564.5 2446.5 2414.5 2446.5M564.5 2446.5 564.5 2512.5M871.529 2446.5 871.529 2512.5M871.529 2446.5 871.529 2512.5M1257.54 2446.5 1257.54 2512.5M1257.54 2446.5 1257.54 2512.5M1642.55 2446.5 1642.55 2512.5M1642.55 2446.5 1642.55 2512.5M2028.57 2446.5 2028.57 2512.5M2028.57 2446.5 2028.57 2512.5M2414.5 2446.5 2414.5 2512.5M2414.5 2446.5 2414.5 2512.5" stroke="#D9D9D9" stroke-width="3.4375" stroke-linejoin="round" stroke-miterlimit="10" fill="none"/></g><g clip-path="url(#clip28)"><rect x="579" y="2467" width="23.0001" height="23" fill="#ED7D31"/></g><g clip-path="url(#clip29)"><text fill="#595959" font-family="Calibri,Calibri_MSFontService,sans-serif" font-weight="400" font-size="41" transform="matrix(1 0 0 1 611.354 2490)">lncRNA</text></g><g clip-path="url(#clip30)"><text fill="#595959" font-family="Calibri,Calibri_MSFontService,sans-serif" font-weight="400" font-size="41" transform="matrix(1 0 0 1 1012.22 2491)">13197</text></g><g clip-path="url(#clip31)"><text fill="#595959" font-family="Calibri,Calibri_MSFontService,sans-serif" font-weight="400" font-size="41" transform="matrix(1 0 0 1 1397.88 2491)">12994</text></g><g clip-path="url(#clip32)"><text fill="#595959" font-family="Calibri,Calibri_MSFontService,sans-serif" font-weight="400" font-size="41" transform="matrix(1 0 0 1 1783.54 2491)">13186</text></g><g clip-path="url(#clip33)"><text fill="#595959" font-family="Calibri,Calibri_MSFontService,sans-serif" font-weight="400" font-size="41" transform="matrix(1 0 0 1 2169.19 2491)">13188</text></g><g clip-path="url(#clip34)"><path d="M564.5 2512.5 2414.5 2512.5M564.5 2512.5 564.5 2578.5M564.5 2578.5 2414.5 2578.5M871.529 2512.5 871.529 2578.5M871.529 2512.5 871.529 2578.5M1257.54 2512.5 1257.54 2578.5M1257.54 2512.5 1257.54 2578.5M1642.55 2512.5 1642.55 2578.5M1642.55 2512.5 1642.55 2578.5M2028.57 2512.5 2028.57 2578.5M2028.57 2512.5 2028.57 2578.5M2414.5 2512.5 2414.5 2578.5M2414.5 2512.5 2414.5 2578.5" stroke="#D9D9D9" stroke-width="3.4375" stroke-linejoin="round" stroke-miterlimit="10" fill="none"/></g><g clip-path="url(#clip35)"><rect x="579" y="2533" width="23.0001" height="23" fill="#4472C4"/></g><g clip-path="url(#clip36)"><text fill="#595959" font-family="Calibri,Calibri_MSFontService,sans-serif" font-weight="400" font-size="41" transform="matrix(1 0 0 1 611.354 2556)">Protein Coding</text></g><g clip-path="url(#clip37)"><text fill="#595959" font-family="Calibri,Calibri_MSFontService,sans-serif" font-weight="400" font-size="41" transform="matrix(1 0 0 1 1012.22 2557)">21856</text></g><g clip-path="url(#clip38)"><text fill="#595959" font-family="Calibri,Calibri_MSFontService,sans-serif" font-weight="400" font-size="41" transform="matrix(1 0 0 1 1397.88 2557)">21859</text></g><g clip-path="url(#clip39)"><text fill="#595959" font-family="Calibri,Calibri_MSFontService,sans-serif" font-weight="400" font-size="41" transform="matrix(1 0 0 1 1783.54 2557)">21848</text></g><g clip-path="url(#clip40)"><text fill="#595959" font-family="Calibri,Calibri_MSFontService,sans-serif" font-weight="400" font-size="41" transform="matrix(1 0 0 1 2169.19 2557)">21834</text></g><g clip-path="url(#clip41)"><text fill="#595959" font-family="Calibri,Calibri_MSFontService,sans-serif" font-weight="400" font-size="41" transform="matrix(1 0 0 1 812.476 2263)">0</text></g><g clip-path="url(#clip42)"><text fill="#595959" font-family="Calibri,Calibri_MSFontService,sans-serif" font-weight="400" font-size="41" transform="matrix(1 0 0 1 728.876 2168)">10000</text></g><g clip-path="url(#clip43)"><text fill="#595959" font-family="Calibri,Calibri_MSFontService,sans-serif" font-weight="400" font-size="41" transform="matrix(1 0 0 1 728.876 2072)">20000</text></g><g clip-path="url(#clip44)"><text fill="#595959" font-family="Calibri,Calibri_MSFontService,sans-serif" font-weight="400" font-size="41" transform="matrix(1 0 0 1 728.876 1977)">30000</text></g><g clip-path="url(#clip45)"><text fill="#595959" font-family="Calibri,Calibri_MSFontService,sans-serif" font-weight="400" font-size="41" transform="matrix(1 0 0 1 728.876 1881)">40000</text></g><g clip-path="url(#clip46)"><text fill="#595959" font-family="Calibri,Calibri_MSFontService,sans-serif" font-weight="400" font-size="41" transform="matrix(1 0 0 1 728.876 1786)">50000</text></g><g clip-path="url(#clip47)"><text fill="#595959" font-family="Calibri,Calibri_MSFontService,sans-serif" font-weight="400" font-size="41" transform="matrix(1 0 0 1 728.876 1691)">60000</text></g><g clip-path="url(#clip48)"><text fill="#595959" font-family="Calibri,Calibri_MSFontService,sans-serif" font-weight="700" font-size="46" transform="matrix(6.12323e-17 -1 1 6.12323e-17 587.697 2129)">Number of genes</text></g><g clip-path="url(#clip49)"><text fill="#595959" font-family="Calibri,Calibri_MSFontService,sans-serif" font-weight="700" font-size="46" transform="matrix(1 0 0 1 1269 2648)">GENCODE mouse releases</text></g><g clip-path="url(#clip50)"><text fill="#595959" font-family="Calibri,Calibri_MSFontService,sans-serif" font-weight="400" font-size="64" transform="matrix(1 0 0 1 815.283 1604)">Annotation statistics for human GENCODE releases</text></g><rect x="486.5" y="1509.5" width="1979" height="1189" stroke="#D9D9D9" stroke-width="3.4375" stroke-linejoin="round" stroke-miterlimit="10" fill="none"/></g></svg>